<?xml version="1.0" encoding="UTF-8"?>
<!DOCTYPE svg PUBLIC "-//W3C//DTD SVG 1.1//EN" "http://www.w3.org/Graphics/SVG/1.1/DTD/svg11.dtd">
<svg width="245mm" height="141mm" viewBox="0 0 24500 14100" version="1.1" xmlns="http://www.w3.org/2000/svg" xmlns:xlink="http://www.w3.org/1999/xlink" stroke-width="28.222" stroke-linejoin="round" xml:space="preserve">
 <path fill="rgb(255,255,255)" stroke="none" d="M 12225,14077 L 0,14077 0,0 24450,0 24450,14077 12225,14077 Z"/>
 <path fill="none" stroke="rgb(179,179,179)" stroke-linejoin="round" d="M 13106,12405 L 2601,12405 2601,590 23612,590 23612,12405 13106,12405 Z"/>
 <path fill="none" stroke="rgb(179,179,179)" stroke-linejoin="round" d="M 23612,12404 L 2601,12404"/>
 <path fill="none" stroke="rgb(179,179,179)" stroke-linejoin="round" d="M 23612,11091 L 2601,11091"/>
 <path fill="none" stroke="rgb(179,179,179)" stroke-linejoin="round" d="M 23612,9779 L 2601,9779"/>
 <path fill="none" stroke="rgb(179,179,179)" stroke-linejoin="round" d="M 23612,8466 L 2601,8466"/>
 <path fill="none" stroke="rgb(179,179,179)" stroke-linejoin="round" d="M 23612,7153 L 2601,7153"/>
 <path fill="none" stroke="rgb(179,179,179)" stroke-linejoin="round" d="M 23612,5840 L 2601,5840"/>
 <path fill="none" stroke="rgb(179,179,179)" stroke-linejoin="round" d="M 23612,4527 L 2601,4527"/>
 <path fill="none" stroke="rgb(179,179,179)" stroke-linejoin="round" d="M 23612,3215 L 2601,3215"/>
 <path fill="none" stroke="rgb(179,179,179)" stroke-linejoin="round" d="M 23612,1902 L 2601,1902"/>
 <path fill="none" stroke="rgb(179,179,179)" stroke-linejoin="round" d="M 23612,589 L 2601,589"/>
 <path fill="none" stroke="rgb(179,179,179)" stroke-linejoin="round" d="M 2601,12554 L 2601,12404"/>
 <path fill="none" stroke="rgb(179,179,179)" stroke-linejoin="round" d="M 2601,12554 L 2601,12404"/>
 <path fill="none" stroke="rgb(179,179,179)" stroke-linejoin="round" d="M 6803,12554 L 6803,12404"/>
 <path fill="none" stroke="rgb(179,179,179)" stroke-linejoin="round" d="M 6803,12554 L 6803,12404"/>
 <path fill="none" stroke="rgb(179,179,179)" stroke-linejoin="round" d="M 11005,12554 L 11005,12404"/>
 <path fill="none" stroke="rgb(179,179,179)" stroke-linejoin="round" d="M 11005,12554 L 11005,12404"/>
 <path fill="none" stroke="rgb(179,179,179)" stroke-linejoin="round" d="M 15207,12554 L 15207,12404"/>
 <path fill="none" stroke="rgb(179,179,179)" stroke-linejoin="round" d="M 15207,12554 L 15207,12404"/>
 <path fill="none" stroke="rgb(179,179,179)" stroke-linejoin="round" d="M 19409,12554 L 19409,12404"/>
 <path fill="none" stroke="rgb(179,179,179)" stroke-linejoin="round" d="M 19409,12554 L 19409,12404"/>
 <path fill="none" stroke="rgb(179,179,179)" stroke-linejoin="round" d="M 23612,12554 L 23612,12404"/>
 <path fill="none" stroke="rgb(179,179,179)" stroke-linejoin="round" d="M 23612,12554 L 23612,12404"/>
 <path fill="none" stroke="rgb(179,179,179)" stroke-linejoin="round" d="M 2601,12404 L 23612,12404"/>
 <path fill="none" stroke="rgb(179,179,179)" stroke-linejoin="round" d="M 2451,12404 L 2601,12404"/>
 <path fill="none" stroke="rgb(179,179,179)" stroke-linejoin="round" d="M 2451,12404 L 2601,12404"/>
 <path fill="none" stroke="rgb(179,179,179)" stroke-linejoin="round" d="M 2451,11091 L 2601,11091"/>
 <path fill="none" stroke="rgb(179,179,179)" stroke-linejoin="round" d="M 2451,11091 L 2601,11091"/>
 <path fill="none" stroke="rgb(179,179,179)" stroke-linejoin="round" d="M 2451,9779 L 2601,9779"/>
 <path fill="none" stroke="rgb(179,179,179)" stroke-linejoin="round" d="M 2451,9779 L 2601,9779"/>
 <path fill="none" stroke="rgb(179,179,179)" stroke-linejoin="round" d="M 2451,8466 L 2601,8466"/>
 <path fill="none" stroke="rgb(179,179,179)" stroke-linejoin="round" d="M 2451,8466 L 2601,8466"/>
 <path fill="none" stroke="rgb(179,179,179)" stroke-linejoin="round" d="M 2451,7153 L 2601,7153"/>
 <path fill="none" stroke="rgb(179,179,179)" stroke-linejoin="round" d="M 2451,7153 L 2601,7153"/>
 <path fill="none" stroke="rgb(179,179,179)" stroke-linejoin="round" d="M 2451,5840 L 2601,5840"/>
 <path fill="none" stroke="rgb(179,179,179)" stroke-linejoin="round" d="M 2451,5840 L 2601,5840"/>
 <path fill="none" stroke="rgb(179,179,179)" stroke-linejoin="round" d="M 2451,4527 L 2601,4527"/>
 <path fill="none" stroke="rgb(179,179,179)" stroke-linejoin="round" d="M 2451,4527 L 2601,4527"/>
 <path fill="none" stroke="rgb(179,179,179)" stroke-linejoin="round" d="M 2451,3215 L 2601,3215"/>
 <path fill="none" stroke="rgb(179,179,179)" stroke-linejoin="round" d="M 2451,3215 L 2601,3215"/>
 <path fill="none" stroke="rgb(179,179,179)" stroke-linejoin="round" d="M 2451,1902 L 2601,1902"/>
 <path fill="none" stroke="rgb(179,179,179)" stroke-linejoin="round" d="M 2451,1902 L 2601,1902"/>
 <path fill="none" stroke="rgb(179,179,179)" stroke-linejoin="round" d="M 2451,589 L 2601,589"/>
 <path fill="none" stroke="rgb(179,179,179)" stroke-linejoin="round" d="M 2451,589 L 2601,589"/>
 <path fill="none" stroke="rgb(179,179,179)" stroke-linejoin="round" d="M 2601,12404 L 2601,589"/>
 <path fill="rgb(255,66,14)" stroke="none" d="M 20072,1616 L 20072,1731 19956,1731 19956,1751 20072,1751 20072,1866 20091,1866 20091,1751 20206,1751 20206,1731 20091,1731 20091,1616 20072,1616 Z"/>
 <path fill="none" stroke="rgb(255,66,14)" stroke-linejoin="round" d="M 20072,1616 L 20072,1731 19956,1731 19956,1751 20072,1751 20072,1866 20091,1866 20091,1751 20206,1751 20206,1731 20091,1731 20091,1616 20072,1616 Z"/>
 <path fill="rgb(255,66,14)" stroke="none" d="M 3095,11836 L 3095,11951 2980,11951 2980,11971 3095,11971 3095,12086 3115,12086 3115,11971 3230,11971 3230,11951 3115,11951 3115,11836 3095,11836 Z"/>
 <path fill="none" stroke="rgb(255,66,14)" stroke-linejoin="round" d="M 3095,11836 L 3095,11951 2980,11951 2980,11971 3095,11971 3095,12086 3115,12086 3115,11971 3230,11971 3230,11951 3115,11951 3115,11836 3095,11836 Z"/>
 <path fill="rgb(255,66,14)" stroke="none" d="M 5028,10657 L 5028,10772 4913,10772 4913,10792 5028,10792 5028,10907 5048,10907 5048,10792 5163,10792 5163,10772 5048,10772 5048,10657 5028,10657 Z"/>
 <path fill="none" stroke="rgb(255,66,14)" stroke-linejoin="round" d="M 5028,10657 L 5028,10772 4913,10772 4913,10792 5028,10792 5028,10907 5048,10907 5048,10792 5163,10792 5163,10772 5048,10772 5048,10657 5028,10657 Z"/>
 <path fill="rgb(255,66,14)" stroke="none" d="M 8558,8567 L 8558,8682 8443,8682 8443,8701 8558,8701 8558,8817 8578,8817 8578,8701 8693,8701 8693,8682 8578,8682 8578,8567 8558,8567 Z"/>
 <path fill="none" stroke="rgb(255,66,14)" stroke-linejoin="round" d="M 8558,8567 L 8558,8682 8443,8682 8443,8701 8558,8701 8558,8817 8578,8817 8578,8701 8693,8701 8693,8682 8578,8682 8578,8567 8558,8567 Z"/>
 <path fill="rgb(255,66,14)" stroke="none" d="M 14188,5210 L 14188,5325 14073,5325 14073,5345 14188,5345 14188,5460 14208,5460 14208,5345 14323,5345 14323,5325 14208,5325 14208,5210 14188,5210 Z"/>
 <path fill="none" stroke="rgb(255,66,14)" stroke-linejoin="round" d="M 14188,5210 L 14188,5325 14073,5325 14073,5345 14188,5345 14188,5460 14208,5460 14208,5345 14323,5345 14323,5325 14208,5325 14208,5210 14188,5210 Z"/>
 <path fill="rgb(255,66,14)" stroke="none" d="M 14945,4757 L 14945,4872 14830,4872 14830,4892 14945,4892 14945,5007 14964,5007 14964,4892 15080,4892 15080,4872 14964,4872 14964,4757 14945,4757 Z"/>
 <path fill="none" stroke="rgb(255,66,14)" stroke-linejoin="round" d="M 14945,4757 L 14945,4872 14830,4872 14830,4892 14945,4892 14945,5007 14964,5007 14964,4892 15080,4892 15080,4872 14964,4872 14964,4757 14945,4757 Z"/>
 <path fill="none" stroke="rgb(0,0,0)" stroke-linejoin="round" d="M 19913,1741 L 20081,1741 20250,1741"/>
 <path fill="none" stroke="rgb(0,0,0)" stroke-linejoin="round" d="M 19913,1841 L 19913,1641"/>
 <path fill="none" stroke="rgb(0,0,0)" stroke-linejoin="round" d="M 20250,1641 L 20250,1841"/>
 <path fill="none" stroke="rgb(0,0,0)" stroke-linejoin="round" d="M 2937,11961 L 3105,11961 3273,11961"/>
 <path fill="none" stroke="rgb(0,0,0)" stroke-linejoin="round" d="M 2937,12061 L 2937,11861"/>
 <path fill="none" stroke="rgb(0,0,0)" stroke-linejoin="round" d="M 3273,11861 L 3273,12061"/>
 <path fill="none" stroke="rgb(0,0,0)" stroke-linejoin="round" d="M 4870,10782 L 5038,10782 5206,10782"/>
 <path fill="none" stroke="rgb(0,0,0)" stroke-linejoin="round" d="M 4870,10882 L 4870,10682"/>
 <path fill="none" stroke="rgb(0,0,0)" stroke-linejoin="round" d="M 5206,10682 L 5206,10882"/>
 <path fill="none" stroke="rgb(0,0,0)" stroke-linejoin="round" d="M 8400,8692 L 8568,8692 8736,8692"/>
 <path fill="none" stroke="rgb(0,0,0)" stroke-linejoin="round" d="M 8400,8792 L 8400,8592"/>
 <path fill="none" stroke="rgb(0,0,0)" stroke-linejoin="round" d="M 8736,8592 L 8736,8792"/>
 <path fill="none" stroke="rgb(0,0,0)" stroke-linejoin="round" d="M 14030,5335 L 14198,5335 14366,5335"/>
 <path fill="none" stroke="rgb(0,0,0)" stroke-linejoin="round" d="M 14030,5435 L 14030,5235"/>
 <path fill="none" stroke="rgb(0,0,0)" stroke-linejoin="round" d="M 14366,5235 L 14366,5435"/>
 <path fill="none" stroke="rgb(0,0,0)" stroke-linejoin="round" d="M 14786,4882 L 14955,4882 15123,4882"/>
 <path fill="none" stroke="rgb(0,0,0)" stroke-linejoin="round" d="M 14786,4982 L 14786,4782"/>
 <path fill="none" stroke="rgb(0,0,0)" stroke-linejoin="round" d="M 15123,4782 L 15123,4982"/>
 <path fill="none" stroke="rgb(0,0,0)" stroke-linejoin="round" d="M 20081,1780 L 20081,1741 20081,1702"/>
 <path fill="none" stroke="rgb(0,0,0)" stroke-linejoin="round" d="M 20181,1780 L 19981,1780"/>
 <path fill="none" stroke="rgb(0,0,0)" stroke-linejoin="round" d="M 19981,1702 L 20181,1702"/>
 <path fill="none" stroke="rgb(0,0,0)" stroke-linejoin="round" d="M 3105,12000 L 3105,11961 3105,11922"/>
 <path fill="none" stroke="rgb(0,0,0)" stroke-linejoin="round" d="M 3205,12000 L 3005,12000"/>
 <path fill="none" stroke="rgb(0,0,0)" stroke-linejoin="round" d="M 3005,11922 L 3205,11922"/>
 <path fill="none" stroke="rgb(0,0,0)" stroke-linejoin="round" d="M 5038,10821 L 5038,10782 5038,10743"/>
 <path fill="none" stroke="rgb(0,0,0)" stroke-linejoin="round" d="M 5138,10821 L 4938,10821"/>
 <path fill="none" stroke="rgb(0,0,0)" stroke-linejoin="round" d="M 4938,10743 L 5138,10743"/>
 <path fill="none" stroke="rgb(0,0,0)" stroke-linejoin="round" d="M 8568,8731 L 8568,8692 8568,8652"/>
 <path fill="none" stroke="rgb(0,0,0)" stroke-linejoin="round" d="M 8668,8731 L 8468,8731"/>
 <path fill="none" stroke="rgb(0,0,0)" stroke-linejoin="round" d="M 8468,8652 L 8668,8652"/>
 <path fill="none" stroke="rgb(0,0,0)" stroke-linejoin="round" d="M 14198,5374 L 14198,5335 14198,5296"/>
 <path fill="none" stroke="rgb(0,0,0)" stroke-linejoin="round" d="M 14298,5374 L 14098,5374"/>
 <path fill="none" stroke="rgb(0,0,0)" stroke-linejoin="round" d="M 14098,5296 L 14298,5296"/>
 <path fill="none" stroke="rgb(0,0,0)" stroke-linejoin="round" d="M 14955,4921 L 14955,4882 14955,4843"/>
 <path fill="none" stroke="rgb(0,0,0)" stroke-linejoin="round" d="M 15055,4921 L 14855,4921"/>
 <path fill="none" stroke="rgb(0,0,0)" stroke-linejoin="round" d="M 14855,4843 L 15055,4843"/>
 <path fill="none" stroke="rgb(255,66,14)" stroke-linejoin="round" d="M 3105,11964 L 20081,1778"/>
 <text class="TextShape"><tspan class="TextParagraph" font-family="Liberation Sans, sans-serif" font-size="529px" font-weight="400"><tspan class="TextPosition" x="2455" y="13130"><tspan fill="rgb(0,0,0)" stroke="none">0</tspan></tspan></tspan></text>
 <text class="TextShape"><tspan class="TextParagraph" font-family="Liberation Sans, sans-serif" font-size="529px" font-weight="400"><tspan class="TextPosition" x="6512" y="13130"><tspan fill="rgb(0,0,0)" stroke="none">50</tspan></tspan></tspan></text>
 <text class="TextShape"><tspan class="TextParagraph" font-family="Liberation Sans, sans-serif" font-size="529px" font-weight="400"><tspan class="TextPosition" x="10568" y="13130"><tspan fill="rgb(0,0,0)" stroke="none">100</tspan></tspan></tspan></text>
 <text class="TextShape"><tspan class="TextParagraph" font-family="Liberation Sans, sans-serif" font-size="529px" font-weight="400"><tspan class="TextPosition" x="14771" y="13130"><tspan fill="rgb(0,0,0)" stroke="none">150</tspan></tspan></tspan></text>
 <text class="TextShape"><tspan class="TextParagraph" font-family="Liberation Sans, sans-serif" font-size="529px" font-weight="400"><tspan class="TextPosition" x="18973" y="13130"><tspan fill="rgb(0,0,0)" stroke="none">200</tspan></tspan></tspan></text>
 <text class="TextShape"><tspan class="TextParagraph" font-family="Liberation Sans, sans-serif" font-size="529px" font-weight="400"><tspan class="TextPosition" x="23176" y="13130"><tspan fill="rgb(0,0,0)" stroke="none">250</tspan></tspan></tspan></text>
 <text class="TextShape"><tspan class="TextParagraph" font-family="Liberation Sans, sans-serif" font-size="529px" font-weight="400"><tspan class="TextPosition" x="2060" y="12590"><tspan fill="rgb(0,0,0)" stroke="none">0</tspan></tspan></tspan></text>
 <text class="TextShape"><tspan class="TextParagraph" font-family="Liberation Sans, sans-serif" font-size="529px" font-weight="400"><tspan class="TextPosition" x="2060" y="11277"><tspan fill="rgb(0,0,0)" stroke="none">1</tspan></tspan></tspan></text>
 <text class="TextShape"><tspan class="TextParagraph" font-family="Liberation Sans, sans-serif" font-size="529px" font-weight="400"><tspan class="TextPosition" x="2060" y="9964"><tspan fill="rgb(0,0,0)" stroke="none">2</tspan></tspan></tspan></text>
 <text class="TextShape"><tspan class="TextParagraph" font-family="Liberation Sans, sans-serif" font-size="529px" font-weight="400"><tspan class="TextPosition" x="2060" y="8651"><tspan fill="rgb(0,0,0)" stroke="none">3</tspan></tspan></tspan></text>
 <text class="TextShape"><tspan class="TextParagraph" font-family="Liberation Sans, sans-serif" font-size="529px" font-weight="400"><tspan class="TextPosition" x="2060" y="7338"><tspan fill="rgb(0,0,0)" stroke="none">4</tspan></tspan></tspan></text>
 <text class="TextShape"><tspan class="TextParagraph" font-family="Liberation Sans, sans-serif" font-size="529px" font-weight="400"><tspan class="TextPosition" x="2060" y="6026"><tspan fill="rgb(0,0,0)" stroke="none">5</tspan></tspan></tspan></text>
 <text class="TextShape"><tspan class="TextParagraph" font-family="Liberation Sans, sans-serif" font-size="529px" font-weight="400"><tspan class="TextPosition" x="2060" y="4713"><tspan fill="rgb(0,0,0)" stroke="none">6</tspan></tspan></tspan></text>
 <text class="TextShape"><tspan class="TextParagraph" font-family="Liberation Sans, sans-serif" font-size="529px" font-weight="400"><tspan class="TextPosition" x="2060" y="3400"><tspan fill="rgb(0,0,0)" stroke="none">7</tspan></tspan></tspan></text>
 <text class="TextShape"><tspan class="TextParagraph" font-family="Liberation Sans, sans-serif" font-size="529px" font-weight="400"><tspan class="TextPosition" x="2060" y="2087"><tspan fill="rgb(0,0,0)" stroke="none">8</tspan></tspan></tspan></text>
 <text class="TextShape"><tspan class="TextParagraph" font-family="Liberation Sans, sans-serif" font-size="529px" font-weight="400"><tspan class="TextPosition" x="2060" y="774"><tspan fill="rgb(0,0,0)" stroke="none">9</tspan></tspan></tspan></text>
 <text class="TextShape"><tspan class="TextParagraph" font-family="Liberation Sans, sans-serif" font-size="529px" font-weight="400"><tspan class="TextPosition" x="3355" y="2379"><tspan fill="rgb(255,0,0)" stroke="none">f(x) = 0.038 x + 0.105</tspan></tspan></tspan><tspan class="TextParagraph" font-family="Liberation Sans, sans-serif" font-size="529px" font-weight="400"><tspan class="TextPosition" x="3355" y="2961"><tspan fill="rgb(255,0,0)" stroke="none">R² = 1.000</tspan></tspan></tspan></text>
 <text class="TextShape"><tspan class="TextParagraph" font-family="Liberation Sans, sans-serif" font-size="529px" font-weight="400"><tspan class="TextPosition" x="11758" y="13813"><tspan fill="rgb(0,0,0)" stroke="none">Channel [-]</tspan></tspan></tspan></text>
 <text class="TextShape" transform="rotate(-90 1305 8380)"><tspan class="TextParagraph" font-family="Liberation Sans, sans-serif" font-size="529px" font-weight="400"><tspan class="TextPosition" x="1305" y="8380"><tspan fill="rgb(0,0,0)" stroke="none">Energy [MeV]</tspan></tspan></tspan></text>
</svg>