<svg xmlns="http://www.w3.org/2000/svg" xmlns:xlink="http://www.w3.org/1999/xlink" xmlns:lucid="lucid" width="1002.33" height="1532"><g transform="translate(-19 -39)" lucid:page-tab-id="YGcM5DNywbTK"><path d="M0 0h1360v1760H0z" fill="#fff"/><g filter="url(#a)"><path d="M100 992c0-4.42 3.58-8 8-8h339.5c4.42 0 8 3.58 8 8v102c0 4.42-3.58 8-8 8H108c-4.42 0-8-3.58-8-8z" stroke="#3d4752" stroke-width="4" fill="#fff"/><use xlink:href="#b" transform="matrix(1,0,0,1,114.99999999999994,999) translate(14.962962962962962 48.833333333333336)"/><use xlink:href="#c" transform="matrix(1,0,0,1,114.99999999999994,999) translate(137.62962962962962 48.833333333333336)"/><use xlink:href="#d" transform="matrix(1,0,0,1,114.99999999999994,999) translate(160.5925925925926 48.833333333333336)"/></g><g filter="url(#e)"><path d="M573.5 60c19.38 0 35.08 17.9 35.08 40s-15.7 40-35.08 40H468.26c-19.37 0-35.08-17.9-35.08-40s15.7-40 35.08-40z" stroke="#3d4752" stroke-width="4" fill="#ffdba9"/><use xlink:href="#f" transform="matrix(1,0,0,1,448.1817642320928,75) translate(44.888888888888886 30.708333333333336)"/></g><g filter="url(#g)"><path d="M670.88 1208c0-4.42 3.58-8 8-8h223.34c4.42 0 8 3.58 8 8v84c0 4.42-3.58 8-8 8H678.88c-4.42 0-8-3.58-8-8z" stroke="#3d4752" stroke-width="4" fill="#fff"/><use xlink:href="#b" transform="matrix(1,0,0,1,685.8818690690998,1215) translate(24.77777777777777 41.020833333333336)"/><use xlink:href="#c" transform="matrix(1,0,0,1,685.8818690690998,1215) translate(147.44444444444446 41.020833333333336)"/><use xlink:href="#h" transform="matrix(1,0,0,1,685.8818690690998,1215) translate(170.40740740740742 41.020833333333336)"/></g><path d="M520.88 604v53.48" stroke="#3d4752" stroke-width="4" fill="none"/><path d="M522.88 604.05h-4V602h4z" fill="#3d4752"/><path d="M520.88 673.75l-4.63-14.27h9.27z" stroke="#3d4752" stroke-width="4" fill="#3d4752"/><path d="M279.75 959.26h-4v-87.12h4zM321.15 783h-41.4v62.47h-4V779h45.4z" fill="#3d4752"/><path d="M322.95 780.25l.7 2.75h-2.56v-4h2.62zM277.75 975.53l-4.63-14.27h9.27z" fill="#3d4752"/><path d="M277.75 982l-7.4-22.74h14.8zm-1.88-18.74l1.88 5.8 1.88-5.8z" fill="#3d4752"/><use xlink:href="#i" transform="matrix(1,0,0,1,255.52984389348018,845.4701794067381) translate(0 17.777777777777782)"/><path d="M792.17 915.26h-4v-48.5h4zm0-75.16h-4V783h-67.55v-4h71.55z" fill="#3d4752"/><path d="M720.67 783h-2.62l.76-1.25-.7-2.75h2.57zM790.17 931.53l-4.64-14.27h9.27z" fill="#3d4752"/><path d="M790.17 938l-7.4-22.74h14.78zm-1.9-18.74l1.9 5.8 1.88-5.8z" fill="#3d4752"/><use xlink:href="#j" transform="matrix(1,0,0,1,773.5294867870621,840.1009098428452) translate(0 17.777777777777782)"/><path d="M790.17 1104l.3 71.26" stroke="#3d4752" stroke-width="4" fill="none"/><path d="M792.17 1104.04l-4 .02V1102h4z" fill="#3d4752"/><path d="M790.53 1191.53l-4.7-14.25 9.27-.04z" stroke="#3d4752" stroke-width="4" fill="#3d4752"/><g filter="url(#k)"><path d="M513.74 683.6c3.94-2 10.34-2 14.28 0l185.72 93.8c3.94 2 3.94 5.2 0 7.2l-185.72 93.8c-3.94 2-10.34 2-14.28 0l-185.72-93.8c-3.94-2-3.94-5.2 0-7.2z" stroke="#3d4752" stroke-width="4" fill="#fff"/><use xlink:href="#l" transform="matrix(1,0,0,1,335.8818690690998,695) translate(36.96796296296297 91.20833333333334)"/><use xlink:href="#m" transform="matrix(1,0,0,1,335.8818690690998,695) translate(194.8198148148148 91.20833333333334)"/><use xlink:href="#n" transform="matrix(1,0,0,1,335.8818690690998,695) translate(217.78277777777777 91.20833333333334)"/></g><path d="M277.75 1106v316h153" stroke="#494949" stroke-width="4" fill="none"/><path d="M279.75 1106.05h-4V1104h4z" fill="#494949"/><path d="M447.03 1422l-14.27 4.64v-9.28z" stroke="#494949" stroke-width="4" fill="#494949"/><path d="M790.55 1304v118h-230.3" stroke="#494949" stroke-width="4" fill="none"/><path d="M792.55 1304.05h-4V1302h4z" fill="#494949"/><path d="M543.98 1422l14.26-4.64v9.28z" stroke="#494949" stroke-width="4" fill="#494949"/><g filter="url(#o)"><path d="M580 940h420.33v160H580zm42.03 0v160M580 982.03h420.33" stroke="#3d4752" stroke-width="4" fill="#fff"/><use xlink:href="#p" transform="matrix(1,0,0,1,627.0330578512396,987.0330578512396) translate(21.833333333333314 58.458333333333336)"/><use xlink:href="#q" transform="matrix(1,0,0,1,627.0330578512396,987.0330578512396) translate(280.5 58.458333333333336)"/><use xlink:href="#r" transform="matrix(1,0,0,1,627.0330578512396,987.0330578512396) translate(332.35185185185185 58.458333333333336)"/></g><path d="M535.5 1422c0 22.1-17.9 40-40 40s-40-17.9-40-40 17.9-40 40-40 40 17.9 40 40zm-80 0h80m-40-40v80" stroke="#3d4752" stroke-width="4" fill="#fff" filter="url(#s)"/><path d="M497.97 421.68H42V1548h451.5v-82h4v86H38V417.68h459.97z" fill="#494949"/><path d="M495.48 1464l2.02-.07v2.12h-4v-2.17zM514.24 419.68l-14.27 4.64v-9.27z" fill="#494949"/><path d="M520.7 419.68l-22.73 7.4v-14.8zm-18.73 1.9l5.8-1.9-5.8-1.88z" fill="#494949"/><g filter="url(#t)"><path d="M449.08 240h143.6l47.87 60-47.87 60h-143.6l-47.87-60z" stroke="#3d4752" stroke-width="4" fill="#fff"/><use xlink:href="#b" transform="matrix(1,0,0,1,406.2124475814966,245) translate(34.282777777777774 59.145833333333336)"/><use xlink:href="#c" transform="matrix(1,0,0,1,406.2124475814966,245) translate(156.94944444444445 59.145833333333336)"/><use xlink:href="#h" transform="matrix(1,0,0,1,406.2124475814966,245) translate(179.91240740740741 59.145833333333336)"/></g><path d="M520.88 144v71.26" stroke="#494949" stroke-width="4" fill="none"/><path d="M522.88 144.05h-4V142h4z" fill="#494949"/><path d="M520.88 231.53l-4.63-14.27h9.27z" stroke="#494949" stroke-width="4" fill="#494949"/><path d="M520.88 364V455.26" stroke="#494949" stroke-width="4" fill="none"/><path d="M522.88 364.05h-4V362h4z" fill="#494949"/><path d="M520.88 471.53l-4.63-14.27h9.27z" stroke="#494949" stroke-width="4" fill="#494949"/><g filter="url(#u)"><path d="M402.88 480h268l-32 120h-268z" stroke="#3d4752" stroke-width="4" fill="#fff"/><use xlink:href="#v" transform="matrix(1,0,0,1,375.8818690690999,485) translate(34.764259259259276 59.145833333333336)"/><use xlink:href="#d" transform="matrix(1,0,0,1,375.8818690690999,485) translate(105.80129629629631 59.145833333333336)"/></g><defs><path fill="#3d4752" d="M240 0l2-218c-23 76-54 145-80 218h-23L58-218 59 0H30v-248h44l77 211c21-75 51-140 76-211h43V0h-30" id="w"/><path fill="#3d4752" d="M141-36C126-15 110 5 73 4 37 3 15-17 15-53c-1-64 63-63 125-63 3-35-9-54-41-54-24 1-41 7-42 31l-33-3c5-37 33-52 76-52 45 0 72 20 72 64v82c-1 20 7 32 28 27v20c-31 9-61-2-59-35zM48-53c0 20 12 33 32 33 41-3 63-29 60-74-43 2-92-5-92 41" id="x"/><path fill="#3d4752" d="M141 0L90-78 38 0H4l68-98-65-92h35l48 74 47-74h35l-64 92 68 98h-35" id="y"/><path fill="#3d4752" d="M24-231v-30h32v30H24zM24 0v-190h32V0H24" id="z"/><path fill="#3d4752" d="M210-169c-67 3-38 105-44 169h-31v-121c0-29-5-50-35-48C34-165 62-65 56 0H25l-1-190h30c1 10-1 24 2 32 10-44 99-50 107 0 11-21 27-35 58-36 85-2 47 119 55 194h-31v-121c0-29-5-49-35-48" id="A"/><path fill="#3d4752" d="M84 4C-5 8 30-112 23-190h32v120c0 31 7 50 39 49 72-2 45-101 50-169h31l1 190h-30c-1-10 1-25-2-33-11 22-28 36-60 37" id="B"/><g id="b"><use transform="matrix(0.07407407407407408,0,0,0.07407407407407408,0,0)" xlink:href="#w"/><use transform="matrix(0.07407407407407408,0,0,0.07407407407407408,22.148148148148152,0)" xlink:href="#x"/><use transform="matrix(0.07407407407407408,0,0,0.07407407407407408,36.96296296296297,0)" xlink:href="#y"/><use transform="matrix(0.07407407407407408,0,0,0.07407407407407408,50.296296296296305,0)" xlink:href="#z"/><use transform="matrix(0.07407407407407408,0,0,0.07407407407407408,56.14814814814815,0)" xlink:href="#A"/><use transform="matrix(0.07407407407407408,0,0,0.07407407407407408,78.2962962962963,0)" xlink:href="#B"/><use transform="matrix(0.07407407407407408,0,0,0.07407407407407408,93.1111111111111,0)" xlink:href="#A"/></g><path fill="#3d4752" d="M18-150v-26h174v26H18zm0 90v-26h174v26H18" id="C"/><use transform="matrix(0.07407407407407408,0,0,0.07407407407407408,0,0)" xlink:href="#C" id="c"/><path fill="#3d4752" d="M185-189c-5-48-123-54-124 2 14 75 158 14 163 119 3 78-121 87-175 55-17-10-28-26-33-46l33-7c5 56 141 63 141-1 0-78-155-14-162-118-5-82 145-84 179-34 5 7 8 16 11 25" id="D"/><path fill="#3d4752" d="M100-194c63 0 86 42 84 106H49c0 40 14 67 53 68 26 1 43-12 49-29l28 8c-11 28-37 45-77 45C44 4 14-33 15-96c1-61 26-98 85-98zm52 81c6-60-76-77-97-28-3 7-6 17-6 28h103" id="E"/><path fill="#3d4752" d="M117-194c89-4 53 116 60 194h-32v-121c0-31-8-49-39-48C34-167 62-67 57 0H25l-1-190h30c1 10-1 24 2 32 11-22 29-35 61-36" id="F"/><path fill="#3d4752" d="M135-143c-3-34-86-38-87 0 15 53 115 12 119 90S17 21 10-45l28-5c4 36 97 45 98 0-10-56-113-15-118-90-4-57 82-63 122-42 12 7 21 19 24 35" id="G"/><path fill="#3d4752" d="M100-194c62-1 85 37 85 99 1 63-27 99-86 99S16-35 15-95c0-66 28-99 85-99zM99-20c44 1 53-31 53-75 0-43-8-75-51-75s-53 32-53 75 10 74 51 75" id="H"/><path fill="#3d4752" d="M114-163C36-179 61-72 57 0H25l-1-190h30c1 12-1 29 2 39 6-27 23-49 58-41v29" id="I"/><path fill="#3d4752" d="M137 0h-34L2-248h35l83 218 83-218h36" id="J"/><path fill="#3d4752" d="M24 0v-261h32V0H24" id="K"/><g id="d"><use transform="matrix(0.07407407407407408,0,0,0.07407407407407408,0,0)" xlink:href="#D"/><use transform="matrix(0.07407407407407408,0,0,0.07407407407407408,17.77777777777778,0)" xlink:href="#E"/><use transform="matrix(0.07407407407407408,0,0,0.07407407407407408,32.592592592592595,0)" xlink:href="#F"/><use transform="matrix(0.07407407407407408,0,0,0.07407407407407408,47.40740740740741,0)" xlink:href="#G"/><use transform="matrix(0.07407407407407408,0,0,0.07407407407407408,60.74074074074075,0)" xlink:href="#H"/><use transform="matrix(0.07407407407407408,0,0,0.07407407407407408,75.55555555555557,0)" xlink:href="#I"/><use transform="matrix(0.07407407407407408,0,0,0.07407407407407408,84.37037037037038,0)" xlink:href="#J"/><use transform="matrix(0.07407407407407408,0,0,0.07407407407407408,100.14814814814814,0)" xlink:href="#x"/><use transform="matrix(0.07407407407407408,0,0,0.07407407407407408,114.96296296296296,0)" xlink:href="#K"/><use transform="matrix(0.07407407407407408,0,0,0.07407407407407408,120.81481481481481,0)" xlink:href="#B"/><use transform="matrix(0.07407407407407408,0,0,0.07407407407407408,135.62962962962962,0)" xlink:href="#E"/></g><filter id="a" filterUnits="objectBoundingBox" x="-.03" y="-.03" width="1.06" height="1.17"><feOffset result="offOut" in="SourceAlpha" dy="6"/><feGaussianBlur result="blurOut" in="offOut" stdDeviation="5"/><feColorMatrix result="colorOut" in="blurOut" values="0 0 0 0 0 0 0 0 0 0 0 0 0 0 0 0 0 0 0.16862745098039217 0"/><feBlend in="SourceGraphic" in2="colorOut"/></filter><path fill="#3d4752" d="M59-47c-2 24 18 29 38 22v24C64 9 27 4 27-40v-127H5v-23h24l9-43h21v43h35v23H59v120" id="L"/><g id="f"><use transform="matrix(0.07407407407407408,0,0,0.07407407407407408,0,0)" xlink:href="#D"/><use transform="matrix(0.07407407407407408,0,0,0.07407407407407408,17.77777777777778,0)" xlink:href="#L"/><use transform="matrix(0.07407407407407408,0,0,0.07407407407407408,25.185185185185187,0)" xlink:href="#x"/><use transform="matrix(0.07407407407407408,0,0,0.07407407407407408,40,0)" xlink:href="#I"/><use transform="matrix(0.07407407407407408,0,0,0.07407407407407408,48.81481481481481,0)" xlink:href="#L"/></g><filter id="e" filterUnits="objectBoundingBox" x="-.06" y="-.05" width="1.11" height="1.25"><feOffset result="offOut" in="SourceAlpha" dy="6"/><feGaussianBlur result="blurOut" in="offOut" stdDeviation="5"/><feColorMatrix result="colorOut" in="blurOut" values="0 0 0 0 0 0 0 0 0 0 0 0 0 0 0 0 0 0 0.16862745098039217 0"/><feBlend in="SourceGraphic" in2="colorOut"/></filter><path fill="#3d4752" d="M101-251c68 0 85 55 85 127S166 4 100 4C33 4 14-52 14-124c0-73 17-127 87-127zm-1 229c47 0 54-49 54-102s-4-102-53-102c-51 0-55 48-55 102 0 53 5 102 54 102" id="M"/><use transform="matrix(0.07407407407407408,0,0,0.07407407407407408,0,0)" xlink:href="#M" id="h"/><filter id="g" filterUnits="objectBoundingBox" x="-.04" y="-.04" width="1.08" height="1.2"><feOffset result="offOut" in="SourceAlpha" dy="6"/><feGaussianBlur result="blurOut" in="offOut" stdDeviation="5"/><feColorMatrix result="colorOut" in="blurOut" values="0 0 0 0 0 0 0 0 0 0 0 0 0 0 0 0 0 0 0.16862745098039217 0"/><feBlend in="SourceGraphic" in2="colorOut"/></filter><path d="M146-102V0H94v-102L6-248h54l60 105 60-105h54" id="N"/><path d="M24 0v-248h195v40H76v63h132v40H76v65h150V0H24" id="O"/><path d="M169-182c-1-43-94-46-97-3 18 66 151 10 154 114 3 95-165 93-204 36-6-8-10-19-12-30l50-8c3 46 112 56 116 5-17-69-150-10-154-114-4-87 153-88 188-35 5 8 8 18 10 28" id="P"/><g id="i"><use transform="matrix(0.061728395061728406,0,0,0.061728395061728406,0,0)" xlink:href="#N"/><use transform="matrix(0.061728395061728406,0,0,0.061728395061728406,14.814814814814817,0)" xlink:href="#O"/><use transform="matrix(0.061728395061728406,0,0,0.061728395061728406,29.629629629629633,0)" xlink:href="#P"/></g><path d="M175 0L67-191c6 58 2 128 3 191H24v-248h59L193-55c-6-58-2-129-3-193h46V0h-61" id="Q"/><path d="M140-251c80 0 125 45 125 126S219 4 139 4C58 4 15-44 15-125s44-126 125-126zm-1 214c52 0 73-35 73-88 0-50-21-86-72-86-52 0-73 35-73 86s22 88 72 88" id="R"/><g id="j"><use transform="matrix(0.061728395061728406,0,0,0.061728395061728406,0,0)" xlink:href="#Q"/><use transform="matrix(0.061728395061728406,0,0,0.061728395061728406,15.987654320987657,0)" xlink:href="#R"/></g><g id="l"><use transform="matrix(0.07407407407407408,0,0,0.07407407407407408,0,0)" xlink:href="#D"/><use transform="matrix(0.07407407407407408,0,0,0.07407407407407408,17.77777777777778,0)" xlink:href="#E"/><use transform="matrix(0.07407407407407408,0,0,0.07407407407407408,32.592592592592595,0)" xlink:href="#F"/><use transform="matrix(0.07407407407407408,0,0,0.07407407407407408,47.40740740740741,0)" xlink:href="#G"/><use transform="matrix(0.07407407407407408,0,0,0.07407407407407408,60.74074074074075,0)" xlink:href="#H"/><use transform="matrix(0.07407407407407408,0,0,0.07407407407407408,75.55555555555557,0)" xlink:href="#I"/><use transform="matrix(0.07407407407407408,0,0,0.07407407407407408,84.37037037037038,0)" xlink:href="#J"/><use transform="matrix(0.07407407407407408,0,0,0.07407407407407408,100.14814814814814,0)" xlink:href="#x"/><use transform="matrix(0.07407407407407408,0,0,0.07407407407407408,114.96296296296296,0)" xlink:href="#K"/><use transform="matrix(0.07407407407407408,0,0,0.07407407407407408,120.81481481481481,0)" xlink:href="#B"/><use transform="matrix(0.07407407407407408,0,0,0.07407407407407408,135.62962962962962,0)" xlink:href="#E"/></g><path fill="#3d4752" d="M18-27v-27l151-64-151-65v-27l175 74v36" id="S"/><use transform="matrix(0.07407407407407408,0,0,0.07407407407407408,0,0)" xlink:href="#S" id="m"/><g id="n"><use transform="matrix(0.07407407407407408,0,0,0.07407407407407408,0,0)" xlink:href="#w"/><use transform="matrix(0.07407407407407408,0,0,0.07407407407407408,22.148148148148152,0)" xlink:href="#x"/><use transform="matrix(0.07407407407407408,0,0,0.07407407407407408,36.96296296296297,0)" xlink:href="#y"/><use transform="matrix(0.07407407407407408,0,0,0.07407407407407408,50.296296296296305,0)" xlink:href="#z"/><use transform="matrix(0.07407407407407408,0,0,0.07407407407407408,56.14814814814815,0)" xlink:href="#A"/><use transform="matrix(0.07407407407407408,0,0,0.07407407407407408,78.2962962962963,0)" xlink:href="#B"/><use transform="matrix(0.07407407407407408,0,0,0.07407407407407408,93.1111111111111,0)" xlink:href="#A"/></g><filter id="k" filterUnits="objectBoundingBox" x="-.03" y="-.02" width="1.05" height="1.1"><feOffset result="offOut" in="SourceAlpha" dy="6"/><feGaussianBlur result="blurOut" in="offOut" stdDeviation="5"/><feColorMatrix result="colorOut" in="blurOut" values="0 0 0 0 0 0 0 0 0 0 0 0 0 0 0 0 0 0 0.16862745098039217 0"/><feBlend in="SourceGraphic" in2="colorOut"/></filter><path fill="#3d4752" d="M197 0v-115H63V0H30v-248h33v105h134v-105h34V0h-34" id="T"/><path fill="#3d4752" d="M177-190C167-65 218 103 67 71c-23-6-38-20-44-43l32-5c15 47 100 32 89-28v-30C133-14 115 1 83 1 29 1 15-40 15-95c0-56 16-97 71-98 29-1 48 16 59 35 1-10 0-23 2-32h30zM94-22c36 0 50-32 50-73 0-42-14-75-50-75-39 0-46 34-46 75s6 73 46 73" id="U"/><path fill="#3d4752" d="M26 75v-336h71v23H56V52h41v23H26" id="V"/><path fill="#3d4752" d="M3 75V52h41v-290H3v-23h71V75H3" id="W"/><g id="p"><use transform="matrix(0.07407407407407408,0,0,0.07407407407407408,0,0)" xlink:href="#T"/><use transform="matrix(0.07407407407407408,0,0,0.07407407407407408,19.185185185185187,0)" xlink:href="#z"/><use transform="matrix(0.07407407407407408,0,0,0.07407407407407408,25.037037037037035,0)" xlink:href="#G"/><use transform="matrix(0.07407407407407408,0,0,0.07407407407407408,38.370370370370374,0)" xlink:href="#L"/><use transform="matrix(0.07407407407407408,0,0,0.07407407407407408,45.777777777777786,0)" xlink:href="#H"/><use transform="matrix(0.07407407407407408,0,0,0.07407407407407408,60.5925925925926,0)" xlink:href="#U"/><use transform="matrix(0.07407407407407408,0,0,0.07407407407407408,75.40740740740742,0)" xlink:href="#I"/><use transform="matrix(0.07407407407407408,0,0,0.07407407407407408,84.22222222222223,0)" xlink:href="#x"/><use transform="matrix(0.07407407407407408,0,0,0.07407407407407408,99.03703703703704,0)" xlink:href="#A"/><use transform="matrix(0.07407407407407408,0,0,0.07407407407407408,121.18518518518519,0)" xlink:href="#V"/><use transform="matrix(0.07407407407407408,0,0,0.07407407407407408,128.5925925925926,0)" xlink:href="#w"/><use transform="matrix(0.07407407407407408,0,0,0.07407407407407408,150.74074074074076,0)" xlink:href="#x"/><use transform="matrix(0.07407407407407408,0,0,0.07407407407407408,165.55555555555557,0)" xlink:href="#y"/><use transform="matrix(0.07407407407407408,0,0,0.07407407407407408,178.8888888888889,0)" xlink:href="#z"/><use transform="matrix(0.07407407407407408,0,0,0.07407407407407408,184.74074074074076,0)" xlink:href="#A"/><use transform="matrix(0.07407407407407408,0,0,0.07407407407407408,206.8888888888889,0)" xlink:href="#B"/><use transform="matrix(0.07407407407407408,0,0,0.07407407407407408,221.70370370370372,0)" xlink:href="#A"/><use transform="matrix(0.07407407407407408,0,0,0.07407407407407408,243.85185185185188,0)" xlink:href="#W"/></g><path fill="#3d4752" d="M85-194c31 0 48 13 60 33l-1-100h32l1 261h-30c-2-10 0-23-3-31C134-8 116 4 85 4 32 4 16-35 15-94c0-66 23-100 70-100zm9 24c-40 0-46 34-46 75 0 40 6 74 45 74 42 0 51-32 51-76 0-42-9-74-50-73" id="X"/><g id="q"><use transform="matrix(0.07407407407407408,0,0,0.07407407407407408,0,0)" xlink:href="#x"/><use transform="matrix(0.07407407407407408,0,0,0.07407407407407408,14.814814814814817,0)" xlink:href="#X"/><use transform="matrix(0.07407407407407408,0,0,0.07407407407407408,29.629629629629633,0)" xlink:href="#X"/></g><path fill="#3d4752" d="M27 0v-27h64v-190l-56 39v-29l58-41h29v221h61V0H27" id="Y"/><use transform="matrix(0.07407407407407408,0,0,0.07407407407407408,0,0)" xlink:href="#Y" id="r"/><filter id="o" filterUnits="objectBoundingBox" x="-.02" y="-.03" width="1.05" height="1.13"><feOffset result="offOut" in="SourceAlpha" dy="6"/><feGaussianBlur result="blurOut" in="offOut" stdDeviation="5"/><feColorMatrix result="colorOut" in="blurOut" values="0 0 0 0 0 0 0 0 0 0 0 0 0 0 0 0 0 0 0.16862745098039217 0"/><feBlend in="SourceGraphic" in2="colorOut"/></filter><filter id="s" filterUnits="objectBoundingBox" x="-.13" y="-.05" width="1.25" height="1.25"><feOffset result="offOut" in="SourceAlpha" dy="6"/><feGaussianBlur result="blurOut" in="offOut" stdDeviation="5"/><feColorMatrix result="colorOut" in="blurOut" values="0 0 0 0 0 0 0 0 0 0 0 0 0 0 0 0 0 0 0.16862745098039217 0"/><feBlend in="SourceGraphic" in2="colorOut"/></filter><filter id="t" filterUnits="objectBoundingBox" x="-.04" y="-.03" width="1.08" height="1.17"><feOffset result="offOut" in="SourceAlpha" dy="6"/><feGaussianBlur result="blurOut" in="offOut" stdDeviation="5"/><feColorMatrix result="colorOut" in="blurOut" values="0 0 0 0 0 0 0 0 0 0 0 0 0 0 0 0 0 0 0.16862745098039217 0"/><feBlend in="SourceGraphic" in2="colorOut"/></filter><path fill="#3d4752" d="M233-177c-1 41-23 64-60 70L243 0h-38l-65-103H63V0H30v-248c88 3 205-21 203 71zM63-129c60-2 137 13 137-47 0-61-80-42-137-45v92" id="Z"/><g id="v"><use transform="matrix(0.07407407407407408,0,0,0.07407407407407408,0,0)" xlink:href="#Z"/><use transform="matrix(0.07407407407407408,0,0,0.07407407407407408,19.185185185185187,0)" xlink:href="#E"/><use transform="matrix(0.07407407407407408,0,0,0.07407407407407408,34,0)" xlink:href="#x"/><use transform="matrix(0.07407407407407408,0,0,0.07407407407407408,48.81481481481481,0)" xlink:href="#X"/></g><filter id="u" filterUnits="objectBoundingBox" x="-.03" y="-.03" width="1.07" height="1.17"><feOffset result="offOut" in="SourceAlpha" dy="6"/><feGaussianBlur result="blurOut" in="offOut" stdDeviation="5"/><feColorMatrix result="colorOut" in="blurOut" values="0 0 0 0 0 0 0 0 0 0 0 0 0 0 0 0 0 0 0.16862745098039217 0"/><feBlend in="SourceGraphic" in2="colorOut"/></filter></defs></g></svg>