<?xml version="1.0" encoding="UTF-8"?>
<!DOCTYPE svg PUBLIC "-//W3C//DTD SVG 1.1//EN" "http://www.w3.org/Graphics/SVG/1.1/DTD/svg11.dtd">
<svg width="205mm" height="142mm" viewBox="0 0 20500 14200" version="1.1" xmlns="http://www.w3.org/2000/svg" xmlns:xlink="http://www.w3.org/1999/xlink" stroke-width="28.222" stroke-linejoin="round" xml:space="preserve">
 <path fill="rgb(255,255,255)" stroke="none" d="M 10269,14216 L 0,14216 0,0 20538,0 20538,14216 10269,14216 Z"/>
 <path fill="none" stroke="rgb(179,179,179)" stroke-linejoin="round" d="M 10977,12248 L 2220,12248 2220,429 19734,429 19734,12248 10977,12248 Z"/>
 <path fill="none" stroke="rgb(179,179,179)" stroke-linejoin="round" d="M 19734,12247 L 2220,12247"/>
 <path fill="none" stroke="rgb(179,179,179)" stroke-linejoin="round" d="M 19734,10277 L 2220,10277"/>
 <path fill="none" stroke="rgb(179,179,179)" stroke-linejoin="round" d="M 19734,8307 L 2220,8307"/>
 <path fill="none" stroke="rgb(179,179,179)" stroke-linejoin="round" d="M 19734,6338 L 2220,6338"/>
 <path fill="none" stroke="rgb(179,179,179)" stroke-linejoin="round" d="M 19734,4368 L 2220,4368"/>
 <path fill="none" stroke="rgb(179,179,179)" stroke-linejoin="round" d="M 19734,2398 L 2220,2398"/>
 <path fill="none" stroke="rgb(179,179,179)" stroke-linejoin="round" d="M 19734,428 L 2220,428"/>
 <path fill="none" stroke="rgb(179,179,179)" stroke-linejoin="round" d="M 2220,12397 L 2220,12247"/>
 <path fill="none" stroke="rgb(179,179,179)" stroke-linejoin="round" d="M 2220,12397 L 2220,12247"/>
 <path fill="none" stroke="rgb(179,179,179)" stroke-linejoin="round" d="M 4409,12397 L 4409,12247"/>
 <path fill="none" stroke="rgb(179,179,179)" stroke-linejoin="round" d="M 4409,12397 L 4409,12247"/>
 <path fill="none" stroke="rgb(179,179,179)" stroke-linejoin="round" d="M 6598,12397 L 6598,12247"/>
 <path fill="none" stroke="rgb(179,179,179)" stroke-linejoin="round" d="M 6598,12397 L 6598,12247"/>
 <path fill="none" stroke="rgb(179,179,179)" stroke-linejoin="round" d="M 8788,12397 L 8788,12247"/>
 <path fill="none" stroke="rgb(179,179,179)" stroke-linejoin="round" d="M 8788,12397 L 8788,12247"/>
 <path fill="none" stroke="rgb(179,179,179)" stroke-linejoin="round" d="M 10976,12397 L 10976,12247"/>
 <path fill="none" stroke="rgb(179,179,179)" stroke-linejoin="round" d="M 10976,12397 L 10976,12247"/>
 <path fill="none" stroke="rgb(179,179,179)" stroke-linejoin="round" d="M 13165,12397 L 13165,12247"/>
 <path fill="none" stroke="rgb(179,179,179)" stroke-linejoin="round" d="M 13165,12397 L 13165,12247"/>
 <path fill="none" stroke="rgb(179,179,179)" stroke-linejoin="round" d="M 15355,12397 L 15355,12247"/>
 <path fill="none" stroke="rgb(179,179,179)" stroke-linejoin="round" d="M 15355,12397 L 15355,12247"/>
 <path fill="none" stroke="rgb(179,179,179)" stroke-linejoin="round" d="M 17544,12397 L 17544,12247"/>
 <path fill="none" stroke="rgb(179,179,179)" stroke-linejoin="round" d="M 17544,12397 L 17544,12247"/>
 <path fill="none" stroke="rgb(179,179,179)" stroke-linejoin="round" d="M 19734,12397 L 19734,12247"/>
 <path fill="none" stroke="rgb(179,179,179)" stroke-linejoin="round" d="M 19734,12397 L 19734,12247"/>
 <path fill="none" stroke="rgb(179,179,179)" stroke-linejoin="round" d="M 2220,12247 L 19734,12247"/>
 <path fill="none" stroke="rgb(179,179,179)" stroke-linejoin="round" d="M 2070,12247 L 2220,12247"/>
 <path fill="none" stroke="rgb(179,179,179)" stroke-linejoin="round" d="M 2070,12247 L 2220,12247"/>
 <path fill="none" stroke="rgb(179,179,179)" stroke-linejoin="round" d="M 2070,10277 L 2220,10277"/>
 <path fill="none" stroke="rgb(179,179,179)" stroke-linejoin="round" d="M 2070,10277 L 2220,10277"/>
 <path fill="none" stroke="rgb(179,179,179)" stroke-linejoin="round" d="M 2070,8307 L 2220,8307"/>
 <path fill="none" stroke="rgb(179,179,179)" stroke-linejoin="round" d="M 2070,8307 L 2220,8307"/>
 <path fill="none" stroke="rgb(179,179,179)" stroke-linejoin="round" d="M 2070,6338 L 2220,6338"/>
 <path fill="none" stroke="rgb(179,179,179)" stroke-linejoin="round" d="M 2070,6338 L 2220,6338"/>
 <path fill="none" stroke="rgb(179,179,179)" stroke-linejoin="round" d="M 2070,4368 L 2220,4368"/>
 <path fill="none" stroke="rgb(179,179,179)" stroke-linejoin="round" d="M 2070,4368 L 2220,4368"/>
 <path fill="none" stroke="rgb(179,179,179)" stroke-linejoin="round" d="M 2070,2398 L 2220,2398"/>
 <path fill="none" stroke="rgb(179,179,179)" stroke-linejoin="round" d="M 2070,2398 L 2220,2398"/>
 <path fill="none" stroke="rgb(179,179,179)" stroke-linejoin="round" d="M 2070,428 L 2220,428"/>
 <path fill="none" stroke="rgb(179,179,179)" stroke-linejoin="round" d="M 2070,428 L 2220,428"/>
 <path fill="none" stroke="rgb(179,179,179)" stroke-linejoin="round" d="M 2220,12247 L 2220,428"/>
 <path fill="rgb(42,96,153)" stroke="none" d="M 4290,9645 L 4290,9760 4174,9760 4174,9780 4290,9780 4290,9895 4309,9895 4309,9780 4424,9780 4424,9760 4309,9760 4309,9645 4290,9645 Z"/>
 <path fill="none" stroke="rgb(42,96,153)" stroke-linejoin="round" d="M 4290,9645 L 4290,9760 4174,9760 4174,9780 4290,9780 4290,9895 4309,9895 4309,9780 4424,9780 4424,9760 4309,9760 4309,9645 4290,9645 Z"/>
 <path fill="rgb(42,96,153)" stroke="none" d="M 8887,6543 L 8887,6659 8772,6659 8772,6678 8887,6678 8887,6793 8907,6793 8907,6678 9022,6678 9022,6659 8907,6659 8907,6543 8887,6543 Z"/>
 <path fill="none" stroke="rgb(42,96,153)" stroke-linejoin="round" d="M 8887,6543 L 8887,6659 8772,6659 8772,6678 8887,6678 8887,6793 8907,6793 8907,6678 9022,6678 9022,6659 8907,6659 8907,6543 8887,6543 Z"/>
 <path fill="rgb(42,96,153)" stroke="none" d="M 15126,2962 L 15126,3077 15011,3077 15011,3097 15126,3097 15126,3212 15146,3212 15146,3097 15261,3097 15261,3077 15146,3077 15146,2962 15126,2962 Z"/>
 <path fill="none" stroke="rgb(42,96,153)" stroke-linejoin="round" d="M 15126,2962 L 15126,3077 15011,3077 15011,3097 15126,3097 15126,3212 15146,3212 15146,3097 15261,3097 15261,3077 15146,3077 15146,2962 15126,2962 Z"/>
 <path fill="rgb(42,96,153)" stroke="none" d="M 3961,10132 L 3961,10247 3846,10247 3846,10267 3961,10267 3961,10382 3981,10382 3981,10267 4096,10267 4096,10247 3981,10247 3981,10132 3961,10132 Z"/>
 <path fill="none" stroke="rgb(42,96,153)" stroke-linejoin="round" d="M 3961,10132 L 3961,10247 3846,10247 3846,10267 3961,10267 3961,10382 3981,10382 3981,10267 4096,10267 4096,10247 3981,10247 3981,10132 3961,10132 Z"/>
 <path fill="rgb(42,96,153)" stroke="none" d="M 5384,8694 L 5384,8809 5269,8809 5269,8828 5384,8828 5384,8944 5404,8944 5404,8828 5519,8828 5519,8809 5404,8809 5404,8694 5384,8694 Z"/>
 <path fill="none" stroke="rgb(42,96,153)" stroke-linejoin="round" d="M 5384,8694 L 5384,8809 5269,8809 5269,8828 5384,8828 5384,8944 5404,8944 5404,8828 5519,8828 5519,8809 5404,8809 5404,8694 5384,8694 Z"/>
 <path fill="rgb(42,96,153)" stroke="none" d="M 16221,1965 L 16221,2080 16106,2080 16106,2100 16221,2100 16221,2215 16240,2215 16240,2100 16356,2100 16356,2080 16240,2080 16240,1965 16221,1965 Z"/>
 <path fill="none" stroke="rgb(42,96,153)" stroke-linejoin="round" d="M 16221,1965 L 16221,2080 16106,2080 16106,2100 16221,2100 16221,2215 16240,2215 16240,2100 16356,2100 16356,2080 16240,2080 16240,1965 16221,1965 Z"/>
 <path fill="rgb(42,96,153)" stroke="none" d="M 17206,1315 L 17206,1430 17091,1430 17091,1450 17206,1450 17206,1565 17225,1565 17225,1450 17341,1450 17341,1430 17225,1430 17225,1315 17206,1315 Z"/>
 <path fill="none" stroke="rgb(42,96,153)" stroke-linejoin="round" d="M 17206,1315 L 17206,1430 17091,1430 17091,1450 17206,1450 17206,1565 17225,1565 17225,1450 17341,1450 17341,1430 17225,1430 17225,1315 17206,1315 Z"/>
 <path fill="none" stroke="rgb(0,0,0)" stroke-linejoin="round" d="M 3971,9770 L 4299,9770 4628,9770"/>
 <path fill="none" stroke="rgb(0,0,0)" stroke-linejoin="round" d="M 3971,9870 L 3971,9670"/>
 <path fill="none" stroke="rgb(0,0,0)" stroke-linejoin="round" d="M 4628,9670 L 4628,9870"/>
 <path fill="none" stroke="rgb(0,0,0)" stroke-linejoin="round" d="M 8404,6668 L 8897,6668 9390,6668"/>
 <path fill="none" stroke="rgb(0,0,0)" stroke-linejoin="round" d="M 8404,6768 L 8404,6568"/>
 <path fill="none" stroke="rgb(0,0,0)" stroke-linejoin="round" d="M 9390,6568 L 9390,6768"/>
 <path fill="none" stroke="rgb(0,0,0)" stroke-linejoin="round" d="M 13767,3087 L 15136,3087 16504,3087"/>
 <path fill="none" stroke="rgb(0,0,0)" stroke-linejoin="round" d="M 13767,3187 L 13767,2987"/>
 <path fill="none" stroke="rgb(0,0,0)" stroke-linejoin="round" d="M 16504,2987 L 16504,3187"/>
 <path fill="none" stroke="rgb(0,0,0)" stroke-linejoin="round" d="M 3697,10257 L 3971,10257 4245,10257"/>
 <path fill="none" stroke="rgb(0,0,0)" stroke-linejoin="round" d="M 3697,10357 L 3697,10157"/>
 <path fill="none" stroke="rgb(0,0,0)" stroke-linejoin="round" d="M 4245,10157 L 4245,10357"/>
 <path fill="none" stroke="rgb(0,0,0)" stroke-linejoin="round" d="M 5011,8819 L 5394,8819 5777,8819"/>
 <path fill="none" stroke="rgb(0,0,0)" stroke-linejoin="round" d="M 5011,8919 L 5011,8719"/>
 <path fill="none" stroke="rgb(0,0,0)" stroke-linejoin="round" d="M 5777,8719 L 5777,8919"/>
 <path fill="none" stroke="rgb(0,0,0)" stroke-linejoin="round" d="M 16121,2090 L 16231,2090 16340,2090"/>
 <path fill="none" stroke="rgb(0,0,0)" stroke-linejoin="round" d="M 16121,2190 L 16121,1990"/>
 <path fill="none" stroke="rgb(0,0,0)" stroke-linejoin="round" d="M 16340,1990 L 16340,2190"/>
 <path fill="none" stroke="rgb(0,0,0)" stroke-linejoin="round" d="M 17052,1440 L 17216,1440 17380,1440"/>
 <path fill="none" stroke="rgb(0,0,0)" stroke-linejoin="round" d="M 17052,1540 L 17052,1340"/>
 <path fill="none" stroke="rgb(0,0,0)" stroke-linejoin="round" d="M 17380,1340 L 17380,1540"/>
 <path fill="none" stroke="rgb(255,0,0)" stroke-width="25" stroke-linejoin="round" d="M 3971,9975 L 17216,1513"/>
 <text class="TextShape"><tspan class="TextParagraph" font-family="Liberation Sans, sans-serif" font-size="388px" font-weight="400"><tspan class="TextPosition" x="2008" y="12867"><tspan fill="rgb(0,0,0)" stroke="none">10</tspan></tspan></tspan></text>
 <text class="TextShape"><tspan class="TextParagraph" font-family="Liberation Sans, sans-serif" font-size="388px" font-weight="400"><tspan class="TextPosition" x="4197" y="12867"><tspan fill="rgb(0,0,0)" stroke="none">30</tspan></tspan></tspan></text>
 <text class="TextShape"><tspan class="TextParagraph" font-family="Liberation Sans, sans-serif" font-size="388px" font-weight="400"><tspan class="TextPosition" x="6386" y="12867"><tspan fill="rgb(0,0,0)" stroke="none">50</tspan></tspan></tspan></text>
 <text class="TextShape"><tspan class="TextParagraph" font-family="Liberation Sans, sans-serif" font-size="388px" font-weight="400"><tspan class="TextPosition" x="8576" y="12867"><tspan fill="rgb(0,0,0)" stroke="none">70</tspan></tspan></tspan></text>
 <text class="TextShape"><tspan class="TextParagraph" font-family="Liberation Sans, sans-serif" font-size="388px" font-weight="400"><tspan class="TextPosition" x="10765" y="12867"><tspan fill="rgb(0,0,0)" stroke="none">90</tspan></tspan></tspan></text>
 <text class="TextShape"><tspan class="TextParagraph" font-family="Liberation Sans, sans-serif" font-size="388px" font-weight="400"><tspan class="TextPosition" x="12848" y="12867"><tspan fill="rgb(0,0,0)" stroke="none">110</tspan></tspan></tspan></text>
 <text class="TextShape"><tspan class="TextParagraph" font-family="Liberation Sans, sans-serif" font-size="388px" font-weight="400"><tspan class="TextPosition" x="15038" y="12867"><tspan fill="rgb(0,0,0)" stroke="none">130</tspan></tspan></tspan></text>
 <text class="TextShape"><tspan class="TextParagraph" font-family="Liberation Sans, sans-serif" font-size="388px" font-weight="400"><tspan class="TextPosition" x="17227" y="12867"><tspan fill="rgb(0,0,0)" stroke="none">150</tspan></tspan></tspan></text>
 <text class="TextShape"><tspan class="TextParagraph" font-family="Liberation Sans, sans-serif" font-size="388px" font-weight="400"><tspan class="TextPosition" x="19417" y="12867"><tspan fill="rgb(0,0,0)" stroke="none">170</tspan></tspan></tspan></text>
 <text class="TextShape"><tspan class="TextParagraph" font-family="Liberation Sans, sans-serif" font-size="388px" font-weight="400"><tspan class="TextPosition" x="1441" y="12393"><tspan fill="rgb(0,0,0)" stroke="none">0.0</tspan></tspan></tspan></text>
 <text class="TextShape"><tspan class="TextParagraph" font-family="Liberation Sans, sans-serif" font-size="388px" font-weight="400"><tspan class="TextPosition" x="1441" y="10423"><tspan fill="rgb(0,0,0)" stroke="none">1.0</tspan></tspan></tspan></text>
 <text class="TextShape"><tspan class="TextParagraph" font-family="Liberation Sans, sans-serif" font-size="388px" font-weight="400"><tspan class="TextPosition" x="1441" y="8453"><tspan fill="rgb(0,0,0)" stroke="none">2.0</tspan></tspan></tspan></text>
 <text class="TextShape"><tspan class="TextParagraph" font-family="Liberation Sans, sans-serif" font-size="388px" font-weight="400"><tspan class="TextPosition" x="1441" y="6483"><tspan fill="rgb(0,0,0)" stroke="none">3.0</tspan></tspan></tspan></text>
 <text class="TextShape"><tspan class="TextParagraph" font-family="Liberation Sans, sans-serif" font-size="388px" font-weight="400"><tspan class="TextPosition" x="1441" y="4513"><tspan fill="rgb(0,0,0)" stroke="none">4.0</tspan></tspan></tspan></text>
 <text class="TextShape"><tspan class="TextParagraph" font-family="Liberation Sans, sans-serif" font-size="388px" font-weight="400"><tspan class="TextPosition" x="1441" y="2543"><tspan fill="rgb(0,0,0)" stroke="none">5.0</tspan></tspan></tspan></text>
 <text class="TextShape"><tspan class="TextParagraph" font-family="Liberation Sans, sans-serif" font-size="388px" font-weight="400"><tspan class="TextPosition" x="1441" y="573"><tspan fill="rgb(0,0,0)" stroke="none">6.0</tspan></tspan></tspan></text>
 <text class="TextShape"><tspan class="TextParagraph" font-family="Liberation Sans, sans-serif" font-size="388px" font-weight="400"><tspan class="TextPosition" x="4525" y="9916"><tspan fill="rgb(42,96,153)" stroke="none">        </tspan><tspan fill="rgb(42,96,153)" stroke="none">He150</tspan></tspan></tspan></text>
 <text class="TextShape"><tspan class="TextParagraph" font-family="Liberation Sans, sans-serif" font-size="388px" font-weight="400"><tspan class="TextPosition" x="9123" y="6813"><tspan fill="rgb(42,96,153)" stroke="none">         </tspan><tspan fill="rgb(42,96,153)" stroke="none">He150+BF1</tspan></tspan></tspan></text>
 <text class="TextShape"><tspan class="TextParagraph" font-family="Liberation Sans, sans-serif" font-size="388px" font-weight="400"><tspan class="TextPosition" x="15362" y="3232"><tspan fill="rgb(42,96,153)" stroke="none">             </tspan><tspan fill="rgb(42,96,153)" stroke="none">He150+BF2</tspan></tspan></tspan></text>
 <text class="TextShape"><tspan class="TextParagraph" font-family="Liberation Sans, sans-serif" font-size="388px" font-weight="400"><tspan class="TextPosition" x="4197" y="10403"><tspan fill="rgb(42,96,153)" stroke="none">      </tspan><tspan fill="rgb(42,96,153)" stroke="none">p+</tspan></tspan></tspan></text>
 <text class="TextShape"><tspan class="TextParagraph" font-family="Liberation Sans, sans-serif" font-size="388px" font-weight="400"><tspan class="TextPosition" x="5620" y="8965"><tspan fill="rgb(42,96,153)" stroke="none">      </tspan><tspan fill="rgb(42,96,153)" stroke="none">p+ (3+4)</tspan></tspan></tspan></text>
 <text class="TextShape"><tspan class="TextParagraph" font-family="Liberation Sans, sans-serif" font-size="388px" font-weight="400"><tspan class="TextPosition" x="16457" y="2235"><tspan fill="rgb(42,96,153)" stroke="none">   </tspan><tspan fill="rgb(42,96,153)" stroke="none">Pu</tspan></tspan></tspan></text>
 <text class="TextShape"><tspan class="TextParagraph" font-family="Liberation Sans, sans-serif" font-size="388px" font-weight="400"><tspan class="TextPosition" x="17442" y="1585"><tspan fill="rgb(42,96,153)" stroke="none">   </tspan><tspan fill="rgb(42,96,153)" stroke="none">Am</tspan></tspan></tspan></text>
 <text class="TextShape"><tspan class="TextParagraph" font-family="Liberation Sans, sans-serif" font-size="388px" font-weight="400"><tspan class="TextPosition" x="7126" y="3471"><tspan fill="rgb(255,0,0)" stroke="none">f(x) = 0.0355 x + 0.2298</tspan></tspan></tspan><tspan class="TextParagraph" font-family="Liberation Sans, sans-serif" font-size="388px" font-weight="400"><tspan class="TextPosition" x="7126" y="3921"><tspan fill="rgb(255,0,0)" stroke="none">R² = 0.9973</tspan></tspan></tspan></text>
 <text class="TextShape"><tspan class="TextParagraph" font-family="Liberation Sans, sans-serif" font-size="388px" font-weight="400"><tspan class="TextPosition" x="9807" y="13719"><tspan fill="rgb(0,0,0)" stroke="none">Channel [-]</tspan></tspan></tspan></text>
 <text class="TextShape" transform="rotate(-90 834 7753)"><tspan class="TextParagraph" font-family="Liberation Sans, sans-serif" font-size="388px" font-weight="400"><tspan class="TextPosition" x="834" y="7753"><tspan fill="rgb(0,0,0)" stroke="none">Energy [MeV]</tspan></tspan></tspan></text>
</svg>